<svg width="22" height="35" viewBox="0 0 22 35" fill="none" xmlns="http://www.w3.org/2000/svg">
<g id="clipboard.fill">
<g id="Group">
<path id="Vector" d="M4.10064 32.661H17.901C20.591 32.661 21.9294 31.2683 21.9294 28.4561V8.14189C21.9294 5.32975 20.591 3.93708 18.031 3.93708H17.7322C17.7322 3.99065 17.7322 4.0576 17.7322 4.11117V5.69132C17.7322 7.37859 16.6276 8.5704 15.0163 8.5704H6.98548C5.37413 8.5704 4.26958 7.37859 4.26958 5.69132V4.11117C4.26958 4.0576 4.26958 3.99065 4.26958 3.93708H3.97069C1.41072 3.93708 0.0722656 5.32975 0.0722656 8.14189V28.4561C0.0722656 31.2683 1.41072 32.661 4.10064 32.661ZM6.98548 7.01703H15.0163C15.7699 7.01703 16.2247 6.52156 16.2247 5.69132V4.28525C16.2247 3.455 15.7699 2.95953 15.0163 2.95953H13.8207C13.7298 1.44633 12.5082 0.214355 11.0009 0.214355C9.49346 0.214355 8.27196 1.44633 8.18099 2.95953H6.98548C6.23178 2.95953 5.77696 3.455 5.77696 4.28525V5.69132C5.77696 6.52156 6.23178 7.01703 6.98548 7.01703ZM11.0009 4.23168C10.3771 4.23168 9.87032 3.69605 9.87032 3.06666C9.87032 2.4105 10.3771 1.88824 11.0009 1.88824C11.6246 1.88824 12.1314 2.4105 12.1314 3.06666C12.1314 3.69605 11.6246 4.23168 11.0009 4.23168Z" fill="#262626"/>
</g>
</g>
</svg>
