<svg width="560" height="435" viewBox="0 0 560 435" fill="none" xmlns="http://www.w3.org/2000/svg">
<g clip-path="url(#clip0_833_5)">
<path d="M720.091 -31H-161V467.13H720.091V-31Z" fill="#1A3129"/>
<path d="M210.291 98.975L191.658 118.716L171.179 111.059L169.703 114.934L192.765 123.559L213.289 101.789L210.291 98.975ZM359.684 139.287L333.486 155.66L335.7 159.166L361.898 142.792L359.684 139.287ZM210.291 98.975L191.658 118.716L171.179 111.059L169.703 114.934L192.765 123.559L213.289 101.789L210.291 98.975ZM359.684 139.287L333.486 155.66L335.7 159.166L361.898 142.792L359.684 139.287ZM210.291 98.975L191.658 118.716L171.179 111.059L169.703 114.934L192.765 123.559L213.289 101.789L210.291 98.975ZM359.684 139.287L333.486 155.66L335.7 159.166L361.898 142.792L359.684 139.287ZM210.291 98.975L191.658 118.716L171.179 111.059L169.703 114.934L192.765 123.559L213.289 101.789L210.291 98.975ZM359.684 139.287L333.486 155.66L335.7 159.166L361.898 142.792L359.684 139.287ZM210.291 98.975L191.658 118.716L171.179 111.059L169.703 114.934L192.765 123.559L213.289 101.789L210.291 98.975ZM359.684 139.287L333.486 155.66L335.7 159.166L361.898 142.792L359.684 139.287ZM210.291 98.975L191.658 118.716L171.179 111.059L169.703 114.934L192.765 123.559L213.289 101.789L210.291 98.975ZM359.684 139.287L333.486 155.66L335.7 159.166L361.898 142.792L359.684 139.287ZM210.291 98.975L191.658 118.716L171.179 111.059L169.703 114.934L192.765 123.559L213.289 101.789L210.291 98.975ZM359.684 139.287L333.486 155.66L335.7 159.166L361.898 142.792L359.684 139.287ZM210.291 98.975L191.658 118.716L171.179 111.059L169.703 114.934L192.765 123.559L213.289 101.789L210.291 98.975ZM359.684 139.287L333.486 155.66L335.7 159.166L361.898 142.792L359.684 139.287ZM480.711 88.3667L503.266 57.4642L526.466 32.6961L528.587 34.8177V21.3037L498.561 53.3131L498.423 53.4515L478.544 80.7103L463.784 66.1354L512.952 15.4921L509.954 12.5864L457.973 66.1815L476.099 84.0773L443.121 112.674L430.668 92.5178L431.498 70.6093L425.179 57.7871L418.676 44.5497L443.213 5.71403L439.708 3.50012L413.925 44.3191L418.584 53.7744L348.661 11.0182C370.662 2.53153 391.417 -5.63227 391.648 -5.72451L390.126 -9.59886C389.895 -9.50661 365.957 -0.0974877 342.25 9.0349C308.303 22.0416 298.341 25.3164 295.481 26.1005L285.149 8.66591L347.923 -10.4752L346.724 -14.4418L282.982 5.02218L261.626 -31H257.844L257.06 -30.5388L279.476 7.23609C274.633 12.7247 256.922 32.7883 255.63 34.4949C254.293 36.2476 224.682 81.1254 219.885 88.3667C199.037 74.253 172.886 73.6073 171.41 73.5612H171.133L170.856 73.6534C169.472 74.0224 136.956 82.6936 122.888 95.1929C119.244 98.4216 110.573 99.0212 98.4428 96.8534L103.147 63.7831L129.576 -27.5869L122.611 -29.6163L96.0905 61.9843L91.2937 95.3313C70.5383 90.3961 49.6445 80.5719 48.1224 77.5739C46.462 73.7918 37.9753 58.9863 30.4573 46.164V54.4201C36.8223 65.3974 43.0028 76.1902 44.2942 79.2343C46.7387 84.9075 71.6914 95.0084 90.6941 99.4824L89.8178 105.663C68.924 100.774 47.7996 90.8574 46.2775 87.8132C44.7554 84.3079 37.468 71.5779 30.4573 59.5397V67.7958C36.1304 77.62 41.2962 86.7063 42.4493 89.4275C44.9399 95.1468 70.2154 105.34 89.2182 109.768L86.2202 130.754L98.1661 164.424L96.7362 198.232L83.2222 218.25C75.1967 230.195 65.926 243.848 56.7475 257.454L48.1686 245.047L30.5034 233.332V242.049L43.0028 250.351L52.4119 263.911C44.6632 275.304 37.1451 286.42 30.5034 296.059V308.928C35.8998 301.087 43.0028 290.663 52.4119 276.78C54.1185 274.243 55.8711 271.706 57.5777 269.169L106.699 307.221L132.989 350.023C127.777 355.65 122.934 360.955 118.645 365.659C116.615 367.919 114.632 370.087 112.787 372.07L78.287 332.266L78.1025 332.081L50.8437 313.54L39.9125 328.161L43.2334 330.652L51.8123 319.213L64.6806 327.976L53.5189 336.509L56.0556 339.83L68.3244 330.467L75.3351 335.264L76.5804 336.74L56.7936 348.594L58.9153 352.145L79.3478 339.922L109.974 375.253C106.745 378.712 104.208 381.295 102.963 382.31C93.5076 389.735 65.7415 405.509 65.4647 405.648L70.0771 413.766C71.2301 413.12 98.7657 397.484 108.728 389.643C111.634 387.383 117.169 381.249 125.563 372.024C129.207 368.011 133.45 363.353 138.063 358.372L163.107 399.144L171.317 405.602C150.239 418.562 135.387 427.879 134.742 428.756L138.063 431.246C137.97 431.338 137.924 431.431 137.878 431.477C139.308 430.278 154.529 420.822 174.823 408.323L196.132 425.112L202.589 439.963L206.417 438.303L203.05 430.554L242.209 461.365L246.729 455.645L196.916 416.487L189.905 400.344L189.305 399.467C208.539 387.66 230.171 374.515 248.574 363.307L253.417 382.033L310.794 464.685L316.79 460.534L295.619 430.001L332.933 408L355.441 396.423L362.59 437.427C359.085 438.857 350.229 442.408 341.373 446.19C317.574 456.429 317.297 457.952 317.02 459.427L321.125 460.165C321.033 460.581 320.849 460.811 320.849 460.811C322.786 458.643 343.541 449.557 363.328 441.624L367.756 467.084H371.999L367.341 440.425L387.082 436.827L403.455 414.965L477.713 434.613L478.774 430.6L405.438 411.183L427.808 354.82L435.741 356.25L528.68 400.298V395.685L437.033 352.237L429.376 350.854L440.261 323.503C468.812 341.906 512.306 366.904 528.726 376.221V371.424C503.865 357.219 431.959 315.708 419.045 303.208C432.236 310.404 443.075 315.846 451.054 318.89C477.944 335.771 512.952 355.881 528.726 364.921V360.124C514.381 351.914 487.445 336.371 463.83 321.934C467.751 322.303 471.81 322.765 475.73 323.226C493.626 325.301 510.507 327.285 520.331 320.458C522.268 319.121 525.174 316.815 528.68 313.909V301.686C522.73 306.806 517.702 310.911 514.981 312.802C508.062 317.599 492.15 315.754 476.791 313.955C471.902 313.402 466.828 312.802 461.939 312.433C455.943 311.972 440.354 304.269 422.458 294.491C421.351 293.569 420.521 292.738 419.875 292.047C411.296 282.361 378.318 245.831 353.043 219.541C356.594 218.065 359.361 217.05 360.976 216.727C366.372 215.713 396.813 222.862 421.259 228.581C472.409 240.619 497.27 245.831 504.465 241.911C506.817 240.665 512.167 237.391 519.317 233.009L528.633 241.818V236.099L523.006 230.749C524.805 229.642 526.696 228.489 528.633 227.244V216.22C524.067 219.08 519.778 221.709 515.996 224.061L463.969 174.709L501.282 133.06C510.323 141.085 519.686 149.388 528.633 157.367V151.786C520.101 144.222 511.66 136.658 504.096 129.97L528.633 102.573V96.346L500.96 127.202C493.81 120.884 487.676 115.441 483.387 111.613L481.911 110.321L439.754 151.786L424.349 137.165L480.481 88.5051L480.711 88.3667ZM421.951 60.6467L427.301 71.4856L426.563 92.1488L400.273 116.871L416.877 135.505L401.334 148.973L400.734 149.48L393.17 156.029L392.893 156.26L392.801 156.721L389.434 175.355L388.235 176.047L345.525 106.355L338.929 88.9202L328.459 81.6789L316.375 61.2924L378.595 34.0798L421.951 60.6467ZM340.82 225.168C354.657 239.282 372.507 258.515 387.404 274.796C384.591 273.182 381.823 271.568 379.148 270.046C347.923 251.966 328.413 240.85 321.31 239.558C318.911 239.143 316.006 239.097 312.685 239.42C322.786 234.116 332.61 229.088 340.82 225.168ZM272.373 261.329L287.64 269.354L325.922 276.272L329.75 282.499L246.821 272.813C255.723 268.478 264.302 264.649 272.373 261.329ZM338.375 204.782C332.057 198.555 327.075 193.989 324.354 192.236C315.268 186.24 289.208 164.701 266.977 142.146L346.216 115.579L384.591 178.168L338.375 204.782ZM322.094 195.649C325.507 197.909 332.841 204.92 342.019 214.237C340.682 214.883 339.252 215.528 337.822 216.22C330.903 209.348 325.415 204.32 322.555 202.383C312.5 195.741 281.644 170.097 258.167 145.006L262.641 143.484C285.472 166.914 312.685 189.469 322.094 195.649ZM185.293 214.514L188.152 223.508L223.759 274.012C220.439 275.765 217.21 277.518 213.981 279.317C210.522 281.208 207.017 283.422 203.465 285.774C199.268 278.855 185.154 253.672 169.334 225.306L185.293 214.514ZM270.205 251.735C269.237 252.288 268.453 252.703 267.899 253.026C260.058 256.301 251.941 259.945 243.777 263.911L231.37 245.278L250.788 227.059L270.205 251.735ZM253.832 224.246L254.662 223.461L254.8 223.323L288.055 179.644C302.077 192.144 314.53 202.106 320.295 205.888C322.878 207.595 327.721 212.023 333.901 218.157C313.146 228.258 286.349 242.833 273.941 249.705L253.832 224.246ZM229.017 241.772L224.221 234.577L244.1 218.572L248.205 223.784L229.017 241.772ZM222.145 230.887L207.201 199.708L221.545 190.022L241.471 215.298L222.145 230.887ZM219.608 235.177L239.995 265.664C236.72 267.278 233.491 268.893 230.263 270.553L194.748 220.187L191.565 210.224L203.742 202.014L219.608 235.177ZM284.873 176.877L251.618 220.556L251.203 220.971L211.906 171.158L254.062 146.759C263.702 157.09 274.633 167.606 284.873 176.877ZM218.963 186.794L205.402 195.926L187.876 159.396L193.134 154L218.963 186.794ZM182.848 158.566L201.897 198.278L190.228 206.165L188.614 201.046L156.004 161.426C158.772 159.811 158.91 159.027 159.002 158.428C159.371 156.491 161.124 141.777 161.447 139.102L183.448 141.777L190.505 150.725L182.848 158.566ZM155.036 157.229C154.713 157.459 154.113 157.828 153.375 158.197L135.018 135.874L157.388 138.595C156.789 143.392 155.451 154.415 155.036 157.229ZM182.11 204.597L183.955 210.409L167.305 221.616C157.434 203.859 147.057 185.133 138.155 168.99C142.859 167.283 146.457 165.854 149.271 164.654L182.11 204.597ZM131.329 250.951L131.836 250.628L134.419 248.875L165.921 227.613C166.152 228.028 166.382 228.443 166.613 228.904C189.49 270 197.239 283.514 200.052 288.08C193.456 292.738 186.769 298.043 180.127 303.762L132.343 252.058L131.329 250.951ZM218.501 287.48C221.545 285.774 224.59 284.159 227.634 282.545L241.332 335.448L203.465 333.511L202.866 334.019C202.773 334.111 193.134 341.906 183.725 349.747C178.19 354.359 173.808 358.095 170.672 360.862C168.919 362.43 167.581 363.63 166.613 364.552L152.591 343.013C172.839 322.119 197.285 299.242 218.501 287.48ZM299.355 29.1446C301.938 28.3144 305.72 27.0229 310.517 25.2702C318.589 22.3645 329.75 18.1673 343.68 12.817H343.726L374.213 31.4507L314.207 57.6948L297.603 29.6981C298.156 29.5136 298.71 29.3291 299.355 29.1446ZM258.951 36.9855C259.874 35.7402 272.419 21.4881 281.69 11.0182L307.15 53.9588L283.95 71.8085L276.34 48.9314L256.276 40.906C257.798 38.646 258.721 37.2161 258.951 36.9855ZM253.924 44.4114L273.019 52.0217L281.828 78.5886L309.272 57.5103L312.5 62.9529L325.092 84.1695L325.323 84.5846L335.516 91.6415L341.789 108.246L344.049 111.936L263.794 138.825C252.817 127.433 243.085 115.994 237.181 106.262C233.399 99.9897 228.556 94.9623 223.252 90.8574C230.632 79.5572 245.991 56.4034 253.924 44.4114ZM97.8432 100.958C111.542 103.403 120.905 102.527 125.655 98.2832C138.293 87.0753 168.365 78.6347 171.64 77.7584C175.422 77.8968 216.472 80.1107 233.63 108.384C239.441 117.932 248.85 129.093 259.459 140.255L255.077 141.731C246.959 132.829 239.949 124.112 235.336 116.456C216.241 84.9997 171.502 83.8466 169.611 83.8466H169.334L169.057 83.9389C167.674 84.3079 135.157 92.979 121.089 105.432C117.446 108.661 108.959 109.261 97.013 107.185L97.8432 100.958ZM112.187 302.378L61.6365 263.22C76.4421 241.403 89.0798 222.585 89.2643 222.401L103.931 200.677L105.546 163.409L93.7382 130.062L96.4134 111.244C109.881 113.596 119.106 112.674 123.811 108.523C136.448 97.3146 166.521 88.8741 169.795 87.9977C173.577 88.1361 214.627 90.35 231.785 118.623C236.397 126.188 243.269 134.813 251.249 143.622L209.369 167.837L185.754 137.857L131.236 131.215L130.222 129.97L114.586 127.156L113.294 134.305L126.301 136.658L146.549 161.241C142.859 162.763 138.57 164.424 134.557 165.9L132.251 166.73L133.45 168.852C133.589 169.128 148.394 195.88 163.984 223.923L131.236 246.016L128.653 247.768L125.102 250.167L177.129 306.437C163.246 318.613 149.87 332.128 138.109 344.581L112.187 302.378ZM168.596 394.255L143.182 352.883C145.258 350.669 147.426 348.409 149.639 346.103L183.494 398.176C181.603 399.329 179.758 400.482 177.913 401.589L168.596 394.255ZM189.997 411.09L181.372 404.31C182.802 403.434 184.232 402.558 185.708 401.635L186.169 402.327L189.997 411.09ZM187.045 395.962L168.919 368.104C172.978 363.906 192.257 347.902 204.849 337.708L242.439 339.6L247.513 359.063C227.265 371.378 205.771 384.477 187.045 395.962ZM234.229 279.086C236.12 278.117 238.011 277.149 239.903 276.226L248.666 277.241L278.554 309.988C276.939 321.104 275.002 333.188 274.126 337.109L248.989 335.817L234.229 279.086ZM260.151 378.943L250.05 340.015L325.645 343.843L321.264 365.567L324.538 381.11L291.468 370.271L261.995 381.572L260.151 378.943ZM293.175 426.588L264.394 385.169L291.514 374.745L325.461 385.861L329.52 405.187L293.175 426.588ZM333.348 403.111L326.014 368.196L351.198 372.762L354.565 392.18L333.348 403.111ZM325.83 363.906L329.843 344.073L354.611 345.319C353.827 347.763 353.089 351.407 352.351 356.896C351.751 361.416 351.336 365.89 351.152 368.473L325.83 363.906ZM355.21 369.58C355.902 359.986 357.378 349.562 358.854 345.549L366.003 345.918L361.299 371.978L355.21 369.58ZM371.815 376.129L365.219 373.546L370.154 346.149L382.884 346.795L384.914 347.164L371.815 376.129ZM389.111 347.902L398.382 349.562L381.685 380.003L375.689 377.651L389.111 347.902ZM384.683 433.091L366.603 436.366L359.546 395.824L377.303 398.591L399.627 413.212L384.683 433.091ZM401.564 409.522L378.779 394.624L358.762 391.488L355.764 374.238L383.576 385.215L402.717 350.346L423.565 354.128L401.564 409.522ZM425.133 350.162L383.53 342.644L358.393 341.352L357.932 340.245C357.47 340.43 357.009 340.706 356.548 341.26L326.799 339.738L326.476 339.692V339.738L313.746 339.092L318.496 310.819L314.391 310.127L309.548 338.908L278.323 337.339C279.246 333.419 280.491 325.532 282.797 309.619L282.935 308.651L254.939 277.979L332.933 287.111L403.686 333.65L429.699 338.631L425.133 350.162ZM436.618 321.243L431.267 334.71L405.3 329.683L335.239 283.56L328.459 272.49L288.978 265.341L277.401 259.253C297.003 251.504 312.546 247.445 319.649 248.737C325.507 249.798 351.521 264.834 374.49 278.117C386.528 285.082 397.644 291.493 407.699 297.12C410.835 300.625 413.326 303.393 414.848 305.099C417.8 308.42 425.917 314.232 436.618 321.243ZM410.512 287.942C406.776 285.82 402.994 283.698 399.258 281.577C383.392 264.142 361.483 240.342 344.787 223.277C346.216 222.585 347.6 221.985 348.938 221.386C370.062 243.294 397.229 273.182 410.512 287.942ZM482.049 116.133C487.169 120.653 492.611 125.45 498.146 130.431L460.879 171.988L442.752 154.784L482.049 116.133ZM512.306 226.459C506.494 230.057 502.113 232.64 500.083 233.747C499.115 234.116 494.318 234.808 473.055 230.657C459.495 228.028 442.983 224.153 426.747 220.371L431.498 193.989L427.393 193.251L422.642 219.449C387.819 211.285 366.142 206.35 359.177 207.687C356.548 208.195 352.212 209.809 346.724 212.207C346.493 212.3 346.263 212.392 346.032 212.53C344.971 211.469 343.956 210.409 342.942 209.394L344.049 208.748L395.015 179.368L398.612 159.581L421.166 140.025L512.306 226.459ZM419.967 132.783L406.038 117.148L428.177 96.346L439.985 115.441L419.967 132.783ZM335.7 159.166L361.898 142.792L359.684 139.287L333.486 155.66L335.7 159.166ZM213.289 101.835L210.245 98.975L191.612 118.716L171.179 111.059L169.703 114.934L192.765 123.559L213.289 101.835ZM359.684 139.287L333.486 155.66L335.7 159.166L361.898 142.792L359.684 139.287ZM210.291 98.975L191.658 118.716L171.179 111.059L169.703 114.934L192.765 123.559L213.289 101.789L210.291 98.975ZM359.684 139.287L333.486 155.66L335.7 159.166L361.898 142.792L359.684 139.287ZM210.291 98.975L191.658 118.716L171.179 111.059L169.703 114.934L192.765 123.559L213.289 101.789L210.291 98.975ZM359.684 139.287L333.486 155.66L335.7 159.166L361.898 142.792L359.684 139.287ZM210.291 98.975L191.658 118.716L171.179 111.059L169.703 114.934L192.765 123.559L213.289 101.789L210.291 98.975ZM359.684 139.287L333.486 155.66L335.7 159.166L361.898 142.792L359.684 139.287ZM210.291 98.975L191.658 118.716L171.179 111.059L169.703 114.934L192.765 123.559L213.289 101.789L210.291 98.975ZM359.684 139.287L333.486 155.66L335.7 159.166L361.898 142.792L359.684 139.287ZM210.291 98.975L191.658 118.716L171.179 111.059L169.703 114.934L192.765 123.559L213.289 101.789L210.291 98.975ZM359.684 139.287L333.486 155.66L335.7 159.166L361.898 142.792L359.684 139.287ZM210.291 98.975L191.658 118.716L171.179 111.059L169.703 114.934L192.765 123.559L213.289 101.789L210.291 98.975Z" fill="#234338"/>
<path d="M397.044 158.52L393.862 176.923L342.388 206.442L350.137 216.543L231.001 278.071L190.043 221.386L186.815 212.991L132.205 251.181L130.452 248.645L188.291 208.241L192.765 219.91L231.923 274.105L345.432 215.482L337.776 205.52L391.048 174.986L394 157.967L397.044 158.52Z" fill="#468671"/>
<path d="M396.675 155.937C398.586 155.937 400.134 154.388 400.134 152.478C400.134 150.567 398.586 149.019 396.675 149.019C394.765 149.019 393.216 150.567 393.216 152.478C393.216 154.388 394.765 155.937 396.675 155.937Z" fill="#CBEA7B"/>
<path d="M402.025 150.31C401.841 149.849 401.61 149.388 401.287 148.972C401.149 148.788 400.964 148.557 400.78 148.373C398.52 146.113 394.876 146.113 392.616 148.373C390.356 150.633 390.356 154.277 392.616 156.537C392.662 156.583 392.754 156.675 392.801 156.721C395.061 158.797 398.612 158.751 400.78 156.537C401.887 155.384 402.486 153.908 402.486 152.432C402.44 151.74 402.348 151.002 402.025 150.31ZM400.226 156.029C398.289 157.966 395.107 157.966 393.17 156.029C392.201 155.061 391.694 153.769 391.694 152.478C391.694 151.186 392.201 149.895 393.17 148.926C395.107 146.989 398.289 146.989 400.273 148.926C400.457 149.111 400.595 149.295 400.734 149.48C402.164 151.463 402.025 154.231 400.226 156.029Z" fill="#CBEA7B"/>
<path d="M130.545 207.964C123.073 207.964 117.031 214.006 117.031 221.478C117.031 228.95 130.545 242.925 130.545 243.018C130.545 242.925 144.059 228.95 144.059 221.478C144.105 214.006 138.017 207.964 130.545 207.964ZM130.637 227.013C127.454 227.013 124.871 224.43 124.871 221.247C124.871 218.065 127.454 215.482 130.637 215.482C133.819 215.482 136.402 218.065 136.402 221.247C136.402 224.43 133.865 227.013 130.637 227.013Z" fill="#CBEA7B"/>
<path d="M131.329 246.062C133.035 246.062 134.419 247.445 134.419 249.152C134.419 250.859 133.035 252.242 131.329 252.242C129.622 252.242 128.238 250.859 128.238 249.152C128.238 247.445 129.622 246.062 131.329 246.062Z" fill="#CBEA7B"/>
<path d="M675.997 17.6599C695.23 30.7128 711.788 41.8746 711.973 42.0129L720.044 47.4555V39.7068L715.524 36.6627C705.008 29.5597 692.924 21.3959 680.978 13.3243L691.909 5.76015L716.354 -31H708.652L687.343 1.19396L675.351 9.49613C647.493 -9.46049 621.71 -27.0795 619.358 -29.1551C619.45 -29.0628 619.588 -28.8783 619.773 -28.6016L614.284 -25.3269C614.837 -24.3583 615.299 -23.6203 664.005 9.49613C666.265 11.0182 668.479 12.5403 670.693 14.0623L637.115 57.3258L599.386 80.4797C594.405 75.8673 589.746 71.624 585.595 67.8419C583.612 66.0431 581.721 64.2904 579.968 62.6761L615.068 32.2348L615.253 32.0965L631.58 8.06631L618.712 -1.57343L616.498 1.37845L626.599 8.94265L618.896 20.2889L611.378 10.4647L608.473 12.6786L616.729 23.4714L612.531 29.6519L611.24 30.7589L600.77 13.3243L597.634 15.2154L608.426 33.2034L577.293 60.1855C574.249 57.3258 571.943 55.1119 571.067 54.005C564.517 45.6567 550.634 21.2114 550.496 20.9347L543.347 24.9935C543.946 26.0082 557.691 50.269 564.609 59.0785C566.593 61.6153 571.989 66.5043 580.107 73.9302C583.658 77.1588 587.763 80.8948 592.145 84.9536L556.215 107.047L550.496 114.288C539.057 95.7464 530.847 82.6013 530.063 82.0478L527.849 84.9997C527.757 84.9536 527.711 84.9075 527.665 84.8614C528.818 86.3373 537.12 99.6208 548.051 117.378L533.246 136.15L520.147 141.823L521.623 145.19L528.449 142.239L501.282 176.739L506.31 180.705L540.856 136.888L555.062 130.708L555.846 130.2C566.224 147.174 577.847 166.223 587.717 182.412L571.205 186.701L498.377 237.252L502.02 242.51L528.956 223.83L548.328 256.716L558.521 276.549L522.361 282.868C521.115 279.778 517.933 271.937 514.612 264.188C505.618 243.202 504.234 242.972 502.943 242.695L502.297 246.292C501.974 246.246 501.79 246.108 501.744 246.062C503.635 247.814 511.66 266.079 518.671 283.468L494.179 287.757L494.825 291.355L519.778 287.019L522.96 304.408L542.24 318.844L524.943 384.293L528.495 385.215L545.607 320.597L595.281 340.337L594.036 347.348L549.02 442.316L552.341 443.884L597.587 348.501L598.787 341.767L622.909 351.361C603.168 381.987 574.849 432.123 573.234 434.982L576.417 436.781C576.924 435.859 627.475 346.38 640.805 332.635C634.486 344.258 629.689 353.805 626.968 360.862C607.781 391.488 583.75 434.014 582.275 436.643L585.457 438.441C585.78 437.842 606.028 402.004 624.293 372.162C623.97 375.622 623.555 379.173 623.14 382.679C621.295 398.453 619.542 413.304 625.584 421.975C630.981 429.77 654.78 456.291 664.743 467.268H674.382L675.213 466.53C674.844 466.115 638.821 426.496 632.41 417.271C628.167 411.183 629.827 397.161 631.396 383.601C631.903 379.265 632.41 374.791 632.779 370.502C633.194 365.244 639.975 351.453 648.6 335.679C649.43 334.71 650.122 333.972 650.721 333.419C659.254 325.855 691.448 296.797 714.648 274.52C715.986 277.656 716.862 280.055 717.093 281.53C718.015 286.281 711.696 313.125 706.623 334.664C696.06 379.727 691.448 401.635 694.861 408C695.968 410.076 698.828 414.78 702.702 421.099L673.229 452.14L675.905 454.677L704.685 424.328C709.159 431.523 714.602 440.286 720.229 449.234V433.691C716.677 428.018 713.357 422.667 710.543 418.101L720.229 407.908V402.558L708.56 414.872C705.423 409.753 703.117 405.878 702.149 404.126C701.826 403.249 701.226 399.052 704.87 380.28C707.222 368.334 710.589 353.759 713.956 339.461L720.275 340.614V336.878L714.832 335.91C716.908 327.054 718.753 319.167 720.275 312.295V263.819C719.952 264.142 719.629 264.419 719.306 264.742C718.753 263.542 718.153 262.297 717.554 261.006C718.476 260.037 719.399 259.161 720.229 258.284V253.026C718.937 254.41 717.461 255.932 715.847 257.546C706.945 239.236 694.077 215.667 688.035 204.689L710.451 186.978L711.143 187.716L711.235 187.808L720.183 194.634V190.022L713.679 185.087L713.31 184.718L720.137 179.322V174.663L718.246 176.139L704.547 159.12L720.137 151.648V147.589L700.765 156.906L673.875 174.894C672.445 172.034 671.015 169.174 669.54 166.315L713.91 134.997L720.137 133.014V121.852L712.711 110.829C715.155 109.445 717.646 108.061 720.137 106.678V102.48C717 104.187 713.818 105.986 710.635 107.738L687.528 73.4689L637.853 119.315C627.198 107.185 615.253 95.3774 604.275 85.0458L641.497 62.1688L675.997 17.6599ZM553.355 127.433L545.653 130.754L551.603 123.19C552.387 124.435 553.171 125.726 553.955 127.018L553.355 127.433ZM554.047 120.099L560.504 111.89L596.988 89.4737C598.925 91.3186 600.954 93.2096 602.984 95.1468L557.091 124.988C556.03 123.374 555.062 121.714 554.047 120.099ZM558.982 128.171L583.52 112.212C587.21 115.764 601.323 132.783 610.317 143.853L608.657 176.969L591.499 181.397C580.66 163.64 569.129 144.683 558.982 128.171ZM573.972 192.559L608.288 183.657L604.921 250.259L585.78 246.385L572.081 249.244L581.629 220.094L571.666 194.127L573.972 192.559ZM576.463 290.986L578.769 285.174L602.938 289.556L602.384 300.764L602.061 302.563L576.463 290.986ZM601.37 306.252L599.894 314.416L573.05 299.657L575.125 294.353L601.37 306.252ZM580.153 281.715L582.275 276.365C590.715 276.964 599.894 278.256 603.445 279.547L603.122 285.82L580.153 281.715ZM593.436 273.828C589.47 273.274 585.503 272.952 583.243 272.767L587.256 250.443L604.736 253.949L603.63 275.765C601.462 275.119 598.233 274.474 593.436 273.828ZM532 221.709L568.53 196.341L577.708 220.233L567.93 250.167L550.911 253.718L532 221.709ZM552.71 257.131L583.474 250.674L579.461 272.859L562.349 275.857L552.71 257.131ZM543.854 315.431L526.327 302.286L523.421 286.327L559.167 280.101L556.722 295.736L543.854 315.431ZM595.881 336.602L547.036 317.23L560.182 297.12L562.903 279.501L578.077 276.872L568.391 301.41L599.156 318.291L595.881 336.602ZM599.34 337.985L605.982 301.317L607.089 279.178L608.057 278.763C607.919 278.348 607.642 277.933 607.181 277.564L608.519 251.32L608.565 251.043H608.519L609.072 239.835L634.025 244.032L634.624 240.435L609.257 236.191L610.64 208.656C614.1 209.486 621.018 210.593 635.039 212.622L635.916 212.761L662.944 188.085L654.918 256.855L613.915 319.213L609.487 342.136L599.34 337.985ZM610.871 204.874L611.978 182.689L661.975 169.728C662.852 171.388 663.682 173.049 664.512 174.709L663.59 182.412L634.717 208.748C624.985 207.364 614.33 205.658 610.871 204.874ZM712.849 270.83C693.524 289.464 667.187 313.402 654.181 325.117C656.025 321.796 657.916 318.475 659.808 315.2C675.213 301.225 696.153 281.899 711.189 267.186C711.788 268.431 712.342 269.677 712.849 270.83ZM696.983 238.913C701.641 247.814 706.069 256.486 709.528 263.727C697.075 275.903 680.148 291.631 665.804 304.777C667.233 302.286 668.663 299.841 670.001 297.489C685.913 269.954 695.737 252.75 696.844 246.523C697.26 244.401 697.26 241.818 696.983 238.913ZM688.773 245.047C687.85 250.213 674.567 273.136 662.898 293.384C656.763 303.992 651.136 313.771 646.155 322.626C643.065 325.394 640.62 327.561 639.098 328.945C636.192 331.528 631.027 338.677 624.846 348.132L612.993 343.428L617.374 320.551L658.009 258.792L667.787 252.842L674.06 218.065L679.456 207.872C686.282 225.076 689.88 238.774 688.773 245.047ZM701.226 160.918L715.294 178.399L710.727 182.043L694.907 165.162L701.226 160.918ZM691.817 167.237L707.868 184.349L686.144 201.461C685.683 200.584 685.314 199.939 685.037 199.431C682.177 192.513 678.903 185.364 675.443 178.168L691.817 167.237ZM677.657 203.352L670.554 216.82L664.466 250.536L658.977 253.903L667.51 180.798C671.338 188.685 674.751 196.249 677.657 203.352ZM718.891 126.603L711.004 129.14L666.495 160.549C664.973 157.644 663.405 154.738 661.837 151.924C660.177 148.88 658.239 145.79 656.164 142.654C662.252 138.964 684.437 126.511 709.482 112.581L718.891 126.603ZM686.79 79.0498L707.36 109.537C706.991 109.722 706.623 109.952 706.254 110.183C670.001 130.339 658.101 137.165 654.088 139.656C649.983 133.844 645.325 127.94 640.297 122.083L686.79 79.0498ZM605.659 97.822C624.062 115.672 644.218 137.165 654.596 155.891C656.072 158.566 657.548 161.241 658.977 163.916L612.347 176.001L614.053 142.654L613.592 142.1C613.546 142.008 606.628 133.521 599.709 125.265C595.65 120.376 592.329 116.502 589.931 113.781C588.547 112.212 587.486 111.059 586.656 110.183L605.659 97.822Z" fill="#234338"/>
<path d="M64.081 186.517L60.4372 181.259L33.5013 199.939L14.1296 167.053L3.93638 147.22L40.0969 140.901C41.3422 143.991 44.5247 151.786 47.8456 159.581C56.8396 180.567 58.2233 180.797 59.5148 181.074L60.1605 177.477C60.4372 177.523 60.6217 177.615 60.6678 177.661C58.7307 175.77 50.7514 157.598 43.7868 140.255L68.2782 135.966L67.6324 132.368L42.6798 136.704L39.4973 119.315L20.264 104.879L37.5601 39.43L34.0087 38.5076L16.897 103.126L-32.7777 83.3854L-31.5323 76.3747L13.5761 -18.5467L10.2552 -20.1149L-34.9916 75.2677L-36.1908 82.0017L-60.3132 72.4081C-40.5725 41.8746 -12.2067 -8.30741 -10.6385 -11.1209L-13.821 -12.9197C-14.3284 -11.9973 -64.9255 77.4816 -78.209 91.2263C-71.8901 79.6033 -67.0933 70.0558 -64.372 62.999C-45.1848 32.3732 -21.1546 -10.1523 -19.6787 -12.7814L-22.8612 -14.5802C-23.184 -13.9806 -43.4321 21.8571 -61.6969 51.6988C-61.374 48.2396 -60.9589 44.6881 -60.5438 41.1827C-58.6989 25.4086 -56.9923 10.557 -62.9883 1.88581C-66.8627 -3.69509 -80.1 -18.8235 -90.9851 -31H-102.055C-90.8006 -18.4545 -73.9656 0.548234 -69.7684 6.59037C-65.5251 12.6786 -67.1855 26.7001 -68.7537 40.2603C-69.2611 44.5958 -69.7684 49.0698 -70.1374 53.3131C-70.5525 58.5712 -77.3326 72.362 -85.9576 88.1361C-86.7879 89.1047 -87.4797 89.8427 -88.1254 90.3961C-96.6582 97.9603 -128.852 127.018 -152.006 149.295C-153.344 146.159 -154.22 143.761 -154.497 142.285C-155.419 137.534 -149.1 110.69 -144.027 89.1508C-133.418 44.0885 -128.806 22.18 -132.265 15.815C-133.372 13.7395 -136.232 9.03489 -140.106 2.71602L-110.634 -28.3249L-113.309 -30.8616L-142.043 -0.512599C-147.394 -9.18375 -154.22 -20.0688 -161 -30.8616V-15.3643C-156.157 -7.66169 -151.591 -0.328105 -147.901 5.6679L-161 19.5048V24.809L-145.918 8.89652C-142.781 14.0162 -140.475 17.8905 -139.507 19.6432C-139.184 20.5196 -138.584 24.7168 -142.228 43.4889C-144.534 55.4348 -147.947 70.0097 -151.268 84.3079L-161 82.5552V86.2912L-152.144 87.9055C-156.111 104.833 -159.201 118.208 -161 127.894V148.742C-160.262 150.679 -159.34 152.939 -158.233 155.43C-159.201 156.352 -160.078 157.275 -161 158.151V163.317C-159.616 161.933 -158.186 160.503 -156.618 158.981C-156.065 160.18 -155.465 161.426 -154.866 162.671C-157.172 164.977 -159.201 167.099 -160.954 168.99V174.386C-159.017 172.172 -156.342 169.359 -153.159 166.176C-144.257 184.487 -131.389 208.056 -125.347 219.034L-147.763 236.745L-148.455 236.007L-148.547 235.915L-161 226.459V231.072L-151.084 238.59L-150.715 238.959L-161 247.076V251.735L-155.696 247.538L-141.997 264.603L-161 273.736V277.794L-138.215 266.863L-111.325 248.875C-109.896 251.735 -108.466 254.595 -106.99 257.454L-151.36 288.772L-160.124 291.585L-161 290.294V298.55L-160.031 298.227L-150.115 312.894C-153.713 314.924 -157.356 316.953 -161 318.982V323.18C-156.803 320.874 -152.467 318.429 -148.086 316.031L-124.932 350.3L-75.3493 304.454C-64.6949 316.584 -52.749 328.392 -41.7717 338.723L-78.993 361.508L-113.493 406.063C-132.727 393.01 -149.285 381.848 -149.469 381.71L-161 373.961V381.71L-153.067 387.06C-142.551 394.163 -130.466 402.281 -118.521 410.399L-129.452 417.963L-161 465.516V467.13H-154.404L-124.839 422.529L-112.847 414.227C-84.8968 433.183 -58.9756 450.941 -56.8078 452.878C-56.8539 452.832 -57.0384 452.601 -57.2229 452.325L-51.7343 449.05C-52.2877 448.081 -52.749 447.343 -101.455 414.227C-103.669 412.705 -105.929 411.183 -108.143 409.661L-74.6113 366.351L-36.8826 343.197C-31.9013 347.809 -27.2429 352.053 -23.0918 355.835C-21.1085 357.634 -19.2174 359.386 -17.4648 361.001L-52.5645 391.442L-52.749 391.58L-69.0766 415.61L-56.2082 425.25L-53.9943 422.298L-64.0491 414.78L-56.3466 403.434L-48.8285 413.258L-45.9227 411.044L-54.2249 400.251L-50.0277 394.071L-48.7363 392.964L-38.2663 410.399L-35.1299 408.508L-45.9227 390.519L-14.7896 363.537C-11.7455 366.397 -9.43934 368.611 -8.563 369.718C-2.01351 378.066 11.8696 402.511 12.0079 402.788L19.157 398.729C18.5574 397.715 4.81271 373.454 -2.10576 364.644C-4.08905 362.108 -9.48546 357.219 -17.6031 349.793C-21.1546 346.564 -25.2135 342.828 -29.6413 338.769L6.28866 316.676L12.0079 309.435C23.4465 327.976 31.6564 341.122 32.4405 341.675L34.6544 338.723C34.7466 338.769 34.7928 338.815 34.8389 338.862C33.6858 337.386 25.3836 324.102 14.4986 306.345L29.3041 287.573L42.4031 281.899L40.9271 278.532L34.1009 281.484L61.2674 246.984L56.24 243.018L21.7399 286.881L7.53398 293.061L6.74989 293.569C-3.62782 276.595 -15.2509 257.546 -25.1212 241.357L-8.60913 237.068L64.081 186.517ZM30.5033 202.014L-6.02623 227.382L-15.2509 203.444L-5.42663 173.51L11.5928 169.959L30.5033 202.014ZM9.79401 166.592L-20.9701 173.049L-16.9574 150.864L0.154273 147.866L9.79401 166.592ZM-14.0055 132.737L-16.3117 138.549L-40.4802 134.167L-39.9267 122.959L-39.6039 121.206L-14.0055 132.737ZM-38.8659 117.47L-37.39 109.307L-10.5463 124.02L-12.6218 129.324L-38.8659 117.47ZM-17.6493 142.008L-19.7709 147.358C-28.2115 146.759 -37.39 145.467 -40.9415 144.176L-40.6186 137.903L-17.6493 142.008ZM-30.9327 149.895C-26.9661 150.402 -22.9995 150.771 -20.6934 150.956L-24.7061 173.233L-42.1868 169.728L-41.0798 147.912C-38.9582 148.557 -35.7295 149.249 -30.9327 149.895ZM18.6497 108.246L36.1765 121.391L39.0822 137.349L3.33677 143.576L5.7813 127.94L18.6497 108.246ZM-33.3772 87.1214L15.421 106.539L2.27594 126.603L-0.491448 144.222L-15.666 146.897L-5.9801 122.359L-36.7442 105.478L-33.3772 87.1214ZM-36.8365 85.7377L-43.4782 122.406L-44.5852 144.545L-45.5538 144.96C-45.3693 145.375 -45.1387 145.744 -44.6774 146.159L-46.015 172.403L-46.0611 172.68H-46.015L-46.5685 183.888L-71.5211 179.691L-72.1207 183.288L-46.753 187.578L-48.1367 215.113C-51.5959 214.283 -58.5144 213.176 -72.5358 211.147L-73.4121 211.008L-100.44 235.684L-92.4149 166.914L-51.4575 104.602L-47.0297 81.6789L-36.8365 85.7377ZM-48.4134 218.849L-49.5665 240.988L-99.564 253.949C-100.44 252.288 -101.271 250.628 -102.101 248.968L-101.178 241.265L-72.3052 214.929C-62.481 216.358 -51.8265 218.065 -48.4134 218.849ZM-150.392 152.893C-131.066 134.259 -104.73 110.321 -91.723 98.6061C-93.568 101.927 -95.459 105.248 -97.3501 108.523C-112.755 122.498 -133.695 141.823 -148.731 156.537C-149.285 155.245 -149.838 154.046 -150.392 152.893ZM-134.479 184.81C-139.138 175.908 -143.565 167.237 -147.025 159.996C-134.571 147.773 -117.644 132.045 -103.3 118.9C-104.73 121.391 -106.16 123.835 -107.497 126.188C-123.41 153.723 -133.234 170.881 -134.341 177.154C-134.756 179.322 -134.756 181.904 -134.479 184.81ZM-126.269 178.676C-125.347 173.51 -112.063 150.587 -100.394 130.339C-94.2598 119.73 -88.6328 109.952 -83.6515 101.097C-80.5612 98.3293 -78.1167 96.1615 -76.5946 94.7778C-73.6889 92.1949 -68.5231 85.0458 -62.3426 75.5906L-50.4889 80.2952L-54.9168 103.218L-95.5513 164.977L-105.329 170.927L-111.602 205.704L-116.999 215.897C-123.825 198.601 -127.376 184.902 -126.269 178.676ZM-138.723 262.804L-152.79 245.278L-148.224 241.68L-132.404 258.561L-138.723 262.804ZM-129.313 256.486L-145.364 239.374L-123.64 222.262C-123.179 223.139 -122.81 223.784 -122.533 224.292C-119.674 231.21 -116.445 238.359 -112.94 245.554L-129.313 256.486ZM-115.154 220.371L-108.051 206.903L-101.962 173.187L-96.4737 169.82L-105.006 242.925C-108.835 235.038 -112.248 227.428 -115.154 220.371ZM-156.388 297.12L-148.455 294.583L-103.946 263.173C-102.424 266.079 -100.855 268.985 -99.2872 271.798C-97.6268 274.843 -95.6896 277.933 -93.6141 281.069C-99.7023 284.759 -121.888 297.212 -146.932 311.142L-156.388 297.12ZM-124.332 344.673L-144.857 314.186C-144.488 313.955 -144.119 313.771 -143.704 313.54C-107.497 293.384 -95.5513 286.558 -91.5385 284.067C-87.4336 289.879 -82.7751 295.783 -77.7477 301.64L-124.332 344.673ZM-43.1554 325.901C-61.6046 308.051 -81.7604 286.558 -92.092 267.832C-93.568 265.157 -95.0439 262.482 -96.4737 259.806L-49.8893 247.722L-51.5959 281.115L-51.1347 281.669C-51.0885 281.761 -44.2162 290.248 -37.2516 298.55C-33.1928 303.439 -29.8719 307.313 -27.4274 310.035C-26.0437 311.603 -24.9828 312.756 -24.1526 313.632L-43.1554 325.901ZM9.10216 296.29L16.8047 292.969L10.8087 300.533C10.0246 299.288 9.24053 297.996 8.45644 296.705L9.10216 296.29ZM8.45644 303.577L1.9992 311.787L-34.4381 334.203C-36.3753 332.358 -38.4047 330.467 -40.4341 328.53L5.45843 298.688C6.42702 300.349 7.44173 302.009 8.45644 303.577ZM3.52127 295.552L-21.0162 311.511C-24.7061 307.959 -38.8198 290.94 -47.8138 279.87L-46.1534 246.754L-28.9955 242.28C-18.1566 260.083 -6.62582 279.04 3.52127 295.552ZM-11.5149 231.118L-45.8305 240.02L-42.4635 173.418L-23.3224 177.292L-9.62383 174.433L-19.1713 203.582L-9.20872 229.55L-11.5149 231.118Z" fill="#234338"/>
</g>
<defs>
<clipPath id="clip0_833_5">
<rect width="559.5" height="435" rx="8" fill="white"/>
</clipPath>
</defs>
</svg>
