<svg width="20" height="17" viewBox="0 0 20 17" fill="none" xmlns="http://www.w3.org/2000/svg">
<path d="M6.2918 16.6251C13.8371 16.6251 17.9652 10.3724 17.9652 4.95167C17.9652 4.77589 17.9613 4.5962 17.9535 4.42042C18.7566 3.83967 19.4496 3.12033 20 2.2962C19.2521 2.62896 18.458 2.84627 17.6449 2.94074C18.5011 2.42755 19.1421 1.62135 19.4492 0.671594C18.6438 1.14892 17.763 1.48563 16.8445 1.6673C16.2257 1.00976 15.4075 0.574386 14.5164 0.428498C13.6253 0.28261 12.711 0.434331 11.9148 0.860202C11.1186 1.28607 10.4848 1.96238 10.1115 2.78455C9.73825 3.60672 9.64619 4.52897 9.84961 5.4087C8.21874 5.32686 6.62328 4.90321 5.16665 4.1652C3.71002 3.4272 2.42474 2.39132 1.39414 1.12472C0.870333 2.02782 0.710047 3.09649 0.945859 4.11353C1.18167 5.13057 1.79589 6.01966 2.66367 6.60011C2.01219 6.57943 1.37498 6.40402 0.804688 6.08839V6.13917C0.804104 7.08691 1.13175 8.00561 1.73192 8.7391C2.3321 9.47258 3.16777 9.97559 4.09687 10.1626C3.49338 10.3277 2.85999 10.3518 2.2457 10.2329C2.50788 11.048 3.01798 11.7609 3.70481 12.2721C4.39164 12.7833 5.22093 13.0673 6.07695 13.0845C4.62369 14.226 2.82848 14.8452 0.980469 14.8423C0.652739 14.8418 0.325333 14.8217 0 14.7821C1.87738 15.9866 4.06128 16.6263 6.2918 16.6251Z" fill="#262626"/>
</svg>
